<svg width="50" height="50" viewBox="0 0 50 50" fill="none" xmlns="http://www.w3.org/2000/svg">
<path d="M30.2083 20.8332C28.4791 20.8332 27.0833 19.4373 27.0833 17.7082V7.2915C27.0833 5.56234 28.4791 4.1665 30.2083 4.1665C31.9375 4.1665 33.3333 5.56234 33.3333 7.2915V17.7082C33.3333 19.4373 31.9375 20.8332 30.2083 20.8332Z" stroke="#222222" stroke-width="2" stroke-linecap="round" stroke-linejoin="round"/>
<path d="M42.7083 20.8335H39.5833V17.7085C39.5833 15.9793 40.9791 14.5835 42.7083 14.5835C44.4375 14.5835 45.8333 15.9793 45.8333 17.7085C45.8333 19.4377 44.4375 20.8335 42.7083 20.8335Z" stroke="#222222" stroke-width="2" stroke-linecap="round" stroke-linejoin="round"/>
<path d="M19.7917 29.1665C21.5209 29.1665 22.9167 30.5623 22.9167 32.2915V42.7082C22.9167 44.4373 21.5209 45.8332 19.7917 45.8332C18.0625 45.8332 16.6667 44.4373 16.6667 42.7082V32.2915C16.6667 30.5623 18.0625 29.1665 19.7917 29.1665Z" stroke="#222222" stroke-width="2" stroke-linecap="round" stroke-linejoin="round"/>
<path d="M7.29169 29.1665H10.4167V32.2915C10.4167 34.0207 9.02085 35.4165 7.29169 35.4165C5.56252 35.4165 4.16669 34.0207 4.16669 32.2915C4.16669 30.5623 5.56252 29.1665 7.29169 29.1665Z" stroke="#222222" stroke-width="2" stroke-linecap="round" stroke-linejoin="round"/>
<path d="M29.1667 30.2085C29.1667 28.4793 30.5625 27.0835 32.2917 27.0835H42.7084C44.4375 27.0835 45.8334 28.4793 45.8334 30.2085C45.8334 31.9377 44.4375 33.3335 42.7084 33.3335H32.2917C30.5625 33.3335 29.1667 31.9377 29.1667 30.2085Z" stroke="#222222" stroke-width="2" stroke-linecap="round" stroke-linejoin="round"/>
<path d="M32.2917 39.5835H29.1667V42.7085C29.1667 44.4377 30.5625 45.8335 32.2917 45.8335C34.0209 45.8335 35.4167 44.4377 35.4167 42.7085C35.4167 40.9793 34.0209 39.5835 32.2917 39.5835Z" stroke="#222222" stroke-width="2" stroke-linecap="round" stroke-linejoin="round"/>
<path d="M20.8334 19.7915C20.8334 18.0623 19.4375 16.6665 17.7084 16.6665H7.29169C5.56252 16.6665 4.16669 18.0623 4.16669 19.7915C4.16669 21.5207 5.56252 22.9165 7.29169 22.9165H17.7084C19.4375 22.9165 20.8334 21.5207 20.8334 19.7915Z" stroke="#222222" stroke-width="2" stroke-linecap="round" stroke-linejoin="round"/>
<path d="M17.7083 10.4165H20.8333V7.2915C20.8333 5.56234 19.4375 4.1665 17.7083 4.1665C15.9791 4.1665 14.5833 5.56234 14.5833 7.2915C14.5833 9.02067 15.9791 10.4165 17.7083 10.4165Z" stroke="#222222" stroke-width="2" stroke-linecap="round" stroke-linejoin="round"/>
</svg>
